<svg id="brain" xmlns="http://www.w3.org/2000/svg" width="491.52" height="491.52" viewBox="0 0 491.52 491.52">
    <circle id="Ellipse_1" data-name="Ellipse 1" cx="245.76" cy="245.76" r="245.76" transform="translate(0 0)" fill="#334d5c"/>
    <path id="Path_3" data-name="Path 3" d="M487.789,288.226l-147.9-147.9-.066.074a107.135,107.135,0,0,0-79.621-35.45H245.452c-59.392,0-107.52,32.819-107.52,92.211v17.869L124.774,250.3a8.267,8.267,0,0,0,2.509,10.7l10.65,10.65v32.1a16.173,16.173,0,0,0,5.346,12L195.3,367.775l6.33,18.771,98.8,98.8A245.935,245.935,0,0,0,487.789,288.226Z" opacity="0.1"/>
    <path id="Path_4" data-name="Path 4" d="M367.72,210.423A107.542,107.542,0,0,0,260.2,104.96H245.475c-59.394,0-107.543,32.788-107.543,92.183v17.9l-13.156,35.288a8.271,8.271,0,0,0,2.511,10.7l10.645,7.5V303.76a16.287,16.287,0,0,0,16.287,16.287h.383a35.15,35.15,0,0,1,30.642,17.928l16.363,48.586H339.67l-11.657-51.6c-6.449-16.676-3.159-35.874,9.306-48.692C356.506,266.54,368.277,239.784,367.72,210.423Z" fill="#ebf0f3"/>
    <path id="Path_5" data-name="Path 5" d="M175.271,177.964c-.632-10.946,4.326-21.68,11.567-30.229a69.7,69.7,0,0,1,44.129-23.53c5.459-.68,10.982-.728,16.475-1.1,5.657-.382,11.295-1.107,16.966-1.148,17.291-.125,34.336,6.3,47.639,16.766s20.845,25.637,28.574,40.295c19.242,36.493-13.536,49.19-19.175,55.256-1.483,1.6-2.67,3.534-4.624,4.578a11.839,11.839,0,0,1-5.35,1.032,67.265,67.265,0,0,1-13.6-1.086c-3.732-.685-8.421-1.356-10.6,1.6-1.706,2.308-.679,5.563,1.046,7.858s4.091,4.188,5.324,6.752.744,6.253-2.011,7.313c-6.859-4.9-12.143-11.474-18.1-17.345s-13.043-11.269-21.494-12.737c-5.835-1.013-11.835-.066-17.763-.258s-12.383-1.9-15.615-6.619c-3.53-5.148-.943-13.762-5.243-18.076-3.378-3.389-10.42-1.874-14.792-2.6C185.077,202.453,176,190.633,175.271,177.964Z" fill="#fcd462"/>
    <g id="Group_1" data-name="Group 1">
      <path id="Path_6" data-name="Path 6" d="M207.087,197.533a1.713,1.713,0,0,1-1.591-1.023,21.963,21.963,0,0,0-3.03-4.693c-1.872-2.43-3.641-4.728-3.143-7.406.331-1.775,1.632-3.362,3.976-4.855a68.945,68.945,0,0,1,33.492-10.6,1.624,1.624,0,1,1,.181,3.239A65.421,65.421,0,0,0,205.2,182.25c-1.508.961-2.351,1.876-2.508,2.725-.247,1.315,1.044,2.992,2.538,4.927a25.01,25.01,0,0,1,3.444,5.41,1.6,1.6,0,0,1-.959,2.107A1.835,1.835,0,0,1,207.087,197.533Z" fill="#f6c358"/>
      <path id="Path_7" data-name="Path 7" d="M267.515,150.9a1.771,1.771,0,0,1-.876-.228,6.061,6.061,0,0,1-2.719-6.61,10.966,10.966,0,0,1,3.488-5.482,27.165,27.165,0,0,1,19.819-7.247,1.657,1.657,0,0,1,1.618,1.705,1.633,1.633,0,0,1-1.8,1.534,23.723,23.723,0,0,0-17.211,6.3,8.005,8.005,0,0,0-2.565,3.863,2.943,2.943,0,0,0,1.12,3.153,1.575,1.575,0,0,1,.6,2.225A1.732,1.732,0,0,1,267.515,150.9Z" fill="#f6c358"/>
      <path id="Path_8" data-name="Path 8" d="M241.065,155.992c-3.351,0-6.6-2.034-9.173-5.735-.565-.815-1.09-1.667-1.612-2.52a20.071,20.071,0,0,0-3.662-4.845,1.567,1.567,0,0,1-.1-2.294,1.79,1.79,0,0,1,2.421-.1,23,23,0,0,1,4.3,5.606c.488.8.977,1.6,1.508,2.364.97,1.4,2.832,3.606,5.223,4.151a50.486,50.486,0,0,0,2.826-21.238,1.649,1.649,0,0,1,1.568-1.746,1.7,1.7,0,0,1,1.843,1.486,53.518,53.518,0,0,1-3.471,23.8l-.408,1.049-1.177.013Zm.07-1.623h0Z" fill="#f6c358"/>
      <path id="Path_9" data-name="Path 9" d="M194.367,162.352a1.734,1.734,0,0,1-1.451-.76,1.575,1.575,0,0,1,.542-2.237,16.04,16.04,0,0,1,5.273-1.7,16.667,16.667,0,0,0,3.565-.966c2.562-1.144,4.37-3.815,5.822-5.964,2.608-3.85,5.3-7.827,6.691-12.2a1.724,1.724,0,0,1,2.133-1.084,1.609,1.609,0,0,1,1.144,2.022c-1.525,4.8-4.354,8.974-7.086,13.011-1.689,2.5-3.792,5.606-7.243,7.146a19.442,19.442,0,0,1-4.33,1.207,13.151,13.151,0,0,0-4.15,1.277A1.793,1.793,0,0,1,194.367,162.352Z" fill="#f6c358"/>
      <path id="Path_10" data-name="Path 10" d="M243.844,180.484a1.676,1.676,0,0,1-1.705-1.508c-.345-4.684,1.09-9.786,4.15-14.751a74.523,74.523,0,0,1,9.59-11.709,1.767,1.767,0,0,1,2.415-.133,1.558,1.558,0,0,1,.14,2.288,72.265,72.265,0,0,0-9.189,11.189c-2.709,4.4-3.986,8.861-3.688,12.888a1.658,1.658,0,0,1-1.588,1.734C243.924,180.484,243.883,180.484,243.844,180.484Z" fill="#f6c358"/>
      <path id="Path_11" data-name="Path 11" d="M239.827,189.446c-5.9,0-11.958-1.917-18.134-4.1a1.6,1.6,0,0,1-1.007-2.088,1.742,1.742,0,0,1,2.2-.954c8.253,2.925,16.238,5.349,23.391,2.859a35.043,35.043,0,0,0,7.333-3.98l10.807-7.019c2.494-1.623,5.076-3.3,6.7-5.606a1.763,1.763,0,0,1,2.374-.443,1.568,1.568,0,0,1,.468,2.25c-1.993,2.821-4.979,4.763-7.61,6.474l-10.808,7.019a37.687,37.687,0,0,1-8.092,4.354A23.04,23.04,0,0,1,239.827,189.446Z" fill="#f6c358"/>
      <path id="Path_12" data-name="Path 12" d="M250.9,206.488a1.843,1.843,0,0,1-.632-.114c-4.826-1.819-6.976-6.87-6.966-11.069.01-4.088,1.582-7.8,3.474-11.884,1.652-3.558,3.277-7.054,3.448-10.6a1.569,1.569,0,0,1,1.785-1.546,1.654,1.654,0,0,1,1.632,1.692c-.2,4.157-1.953,7.935-3.649,11.589-1.819,3.917-3.257,7.3-3.267,10.759-.007,3,1.491,6.8,4.8,8.046a1.6,1.6,0,0,1,.96,2.107A1.711,1.711,0,0,1,250.9,206.488Z" fill="#f6c358"/>
      <path id="Path_13" data-name="Path 13" d="M220.44,201.326a1.728,1.728,0,0,1-1.481-.808,1.576,1.576,0,0,1,.622-2.218c2.987-1.641,6.37-3.505,8.223-6.328,1.4-2.126,1.9-4.687,2.421-7.4a31.061,31.061,0,0,1,1.712-6.373,1.748,1.748,0,0,1,2.227-.9,1.592,1.592,0,0,1,.95,2.11,28.467,28.467,0,0,0-1.521,5.748c-.559,2.89-1.137,5.878-2.879,8.531-2.307,3.505-6.246,5.676-9.413,7.418A1.787,1.787,0,0,1,220.44,201.326Z" fill="#f6c358"/>
      <path id="Path_14" data-name="Path 14" d="M277.386,182.249h-.013a1.667,1.667,0,0,1-1.7-1.635c.077-9.542,6.1-18.966,14.984-23.456a1.76,1.76,0,0,1,2.317.669,1.583,1.583,0,0,1-.7,2.2c-7.812,3.945-13.105,12.229-13.172,20.617A1.669,1.669,0,0,1,277.386,182.249Z" fill="#f6c358"/>
      <path id="Path_15" data-name="Path 15" d="M292.273,198.56a1.675,1.675,0,0,1-1.712-1.56,19.126,19.126,0,0,1,6.24-14.694,21.392,21.392,0,0,1,15.723-5.365,1.657,1.657,0,0,1,1.578,1.743,1.713,1.713,0,0,1-1.839,1.5,17.8,17.8,0,0,0-13.088,4.465,15.912,15.912,0,0,0-5.19,12.229,1.664,1.664,0,0,1-1.645,1.686Z" fill="#f6c358"/>
      <path id="Path_16" data-name="Path 16" d="M252.019,224.795a1.8,1.8,0,0,1-.729-.155,1.583,1.583,0,0,1-.819-2.158c2.685-5.406,7.721-10.039,14.184-13.046a53.386,53.386,0,0,1,18.974-4.408,1.626,1.626,0,1,1,.247,3.239,49.744,49.744,0,0,0-17.713,4.085c-5.768,2.681-10.243,6.769-12.6,11.513A1.718,1.718,0,0,1,252.019,224.795Z" fill="#f6c358"/>
      <path id="Path_17" data-name="Path 17" d="M285.12,217.757a1.855,1.855,0,0,1-.388-.041c-9.824-2.161-17.893-10.613-19.187-20.091a1.643,1.643,0,0,1,1.478-1.819,1.689,1.689,0,0,1,1.919,1.4c1.114,8.185,8.082,15.48,16.566,17.347a1.622,1.622,0,0,1,1.28,1.949A1.7,1.7,0,0,1,285.12,217.757Z" fill="#f6c358"/>
      <path id="Path_18" data-name="Path 18" d="M334.4,207.179a1.787,1.787,0,0,1-.572-.092,1.606,1.606,0,0,1-1.043-2.073c.264-.707-.472-1.727-1.334-2.367a17.411,17.411,0,0,0-1.468-.945,12.8,12.8,0,0,1-2.882-2.123c-1.823-1.92-2.552-4.75-2.161-8.407.074-.71.178-1.423.285-2.136a17.07,17.07,0,0,0,.264-5,1.641,1.641,0,0,1,1.451-1.838,1.715,1.715,0,0,1,1.939,1.375,19.689,19.689,0,0,1-.264,5.917c-.1.669-.2,1.337-.271,2.006-.288,2.713.151,4.7,1.3,5.913a10.221,10.221,0,0,0,2.164,1.553,20.577,20.577,0,0,1,1.749,1.131c1.7,1.258,3.357,3.587,2.454,6.005A1.712,1.712,0,0,1,334.4,207.179Z" fill="#f6c358"/>
      <path id="Path_19" data-name="Path 19" d="M325.481,212.335a1.8,1.8,0,0,1-.9-.241A35.267,35.267,0,0,1,312.4,200.287c-.345-.558-.675-1.132-1.007-1.7a17.027,17.027,0,0,0-3.818-5.073,1.571,1.571,0,0,1-.221-2.288,1.8,1.8,0,0,1,2.414-.209,19.771,19.771,0,0,1,4.624,6.008c.318.545.632,1.09.963,1.623a31.819,31.819,0,0,0,11.025,10.685,1.578,1.578,0,0,1,.559,2.234A1.735,1.735,0,0,1,325.481,212.335Z" fill="#f6c358"/>
      <path id="Path_20" data-name="Path 20" d="M310.377,168.36a1.748,1.748,0,0,1-1.164-.434,47.782,47.782,0,0,0-5.658-4.05c-1.371-.884-2.739-1.768-4.043-2.732-4.283-3.172-6.788-6.632-7.443-10.29a1.637,1.637,0,0,1,1.4-1.873,1.722,1.722,0,0,1,1.976,1.328c.508,2.836,2.585,5.618,6.173,8.274,1.247.922,2.555,1.768,3.866,2.611a50.267,50.267,0,0,1,6.055,4.354,1.557,1.557,0,0,1,.091,2.291A1.75,1.75,0,0,1,310.377,168.36Z" fill="#f6c358"/>
    </g>
</svg>
  